<?xml version="1.0" encoding="utf-8"?>
<!-- Generator: Adobe Illustrator 24.0.1, SVG Export Plug-In . SVG Version: 6.00 Build 0)  -->
<svg version="1.1" id="Layer_1" xmlns="http://www.w3.org/2000/svg" xmlns:xlink="http://www.w3.org/1999/xlink" x="0px" y="0px"
	 viewBox="0 0 543 637" style="enable-background:new 0 0 543 637;" xml:space="preserve">
<style type="text/css">
	.st0{fill:url(#XMLID_4_);}
	.st1{fill:url(#XMLID_5_);}
	.st2{clip-path:url(#SVGID_2_);}
	.st3{fill:#49A0D8;}
	.st4{fill:#FFFFFF;}
</style>
<g id="Layer_1_1_">
	<g id="XMLID_513_">
		<g>
			
				<radialGradient id="XMLID_4_" cx="270.13" cy="271.865" r="256.1747" gradientTransform="matrix(1 0 0 -1 0 542)" gradientUnits="userSpaceOnUse">
				<stop  offset="0" style="stop-color:#49A0D8"/>
				<stop  offset="3.550000e-02" style="stop-color:#4597CC"/>
				<stop  offset="0.1919" style="stop-color:#3679A4"/>
				<stop  offset="0.3468" style="stop-color:#255D80"/>
				<stop  offset="0.4963" style="stop-color:#154663"/>
				<stop  offset="0.6394" style="stop-color:#013049"/>
				<stop  offset="0.7744" style="stop-color:#001C30"/>
				<stop  offset="0.8981" style="stop-color:#000811"/>
				<stop  offset="1" style="stop-color:#000000"/>
			</radialGradient>
			<polygon id="XMLID_32_" class="st0" points="492.9,141.5 492.9,207.8 525.3,270.1 492.9,332.4 492.9,398.7 435.4,431.9 
				397.7,491.1 327.5,494.2 270.1,527.4 212.7,494.2 142.6,491.1 104.8,431.9 47.4,398.7 47.4,332.4 15,270.1 47.4,207.8 
				47.4,141.5 104.8,108.4 142.6,49.2 212.7,46.1 270.1,12.9 327.5,46.1 397.7,49.2 435.4,108.4 			"/>
		</g>
	</g>
	<g id="XMLID_511_">
		<g>
			
				<radialGradient id="XMLID_5_" cx="270.135" cy="271.87" r="242.8345" gradientTransform="matrix(1 0 0 -1 0 542)" gradientUnits="userSpaceOnUse">
				<stop  offset="0" style="stop-color:#49A0D8"/>
				<stop  offset="3.550000e-02" style="stop-color:#4597CC"/>
				<stop  offset="0.1919" style="stop-color:#3679A4"/>
				<stop  offset="0.3468" style="stop-color:#255D80"/>
				<stop  offset="0.4963" style="stop-color:#154663"/>
				<stop  offset="0.6394" style="stop-color:#013049"/>
				<stop  offset="0.7744" style="stop-color:#001C30"/>
				<stop  offset="0.8981" style="stop-color:#000811"/>
				<stop  offset="1" style="stop-color:#000000"/>
			</radialGradient>
			<polygon id="XMLID_31_" class="st1" points="481.3,148.2 481.3,211.1 512,270.1 481.3,329.2 481.3,392 426.8,423.5 391,479.6 
				324.5,482.5 270.1,514 215.7,482.5 149.2,479.6 113.4,423.5 59,392 59,329.2 28.3,270.1 59,211.1 59,148.2 113.4,116.8 
				149.2,60.7 215.7,57.7 270.1,26.3 324.5,57.7 391,60.7 426.8,116.8 			"/>
		</g>
	</g>
	<g id="XMLID_63_">
		<g>
			<defs>
				<polygon id="SVGID_1_" points="481.3,148.2 481.3,211.1 512,270.1 481.3,329.2 481.3,392 426.8,423.5 391,479.6 324.5,482.5 
					270.1,514 215.7,482.5 149.2,479.6 113.4,423.5 59,392 59,329.2 28.3,270.1 59,211.1 59,148.2 113.4,116.8 149.2,60.7 
					215.7,57.7 270.1,26.3 324.5,57.7 391,60.7 426.8,116.8 				"/>
			</defs>
			<clipPath id="SVGID_2_">
				<use xlink:href="#SVGID_1_"  style="overflow:visible;"/>
			</clipPath>
			<path id="XMLID_171_" class="st2" d="M661,116.9L673.4,93L661,69V43.3l-15.8-9.1L661,25V-0.8l12.5-23.9L661-48.6v-25.8
				l-22.3-12.9l-14.5-22.8l-27-1.2l-22.3-12.9l-15.7,9.1v-18.2l-22.3-12.9l-14.5-22.8l-27-1.2L473-183l-22.3,12.9l-27,1.2
				l-14.5,22.8l-22.3,12.9v18.3l-15.9-9.2l-15.6,9v-18.2l-22.3-12.9l-14.5-22.8l-27-1.2L269.4-183l-22.3,12.9l-26.9,1.2l-14.5,22.8
				l-22.3,12.9v18.2l-15.8-9.1l-15.7,9.1v-18.2l-22.3-12.9L115-168.9l-27-1.2L65.7-183l-22.3,12.9l-27,1.2L1.9-146.2l-22.3,12.9
				v18.3l-15.9-9.2l-22.3,12.9l-27,1.2l-14.5,22.8l-22.3,12.9v25.8l-12.5,23.9l12.4,23.9V25l15.8,9.1l-15.8,9.1V69L-134.8,93
				l12.4,23.9v25.8l15.8,9.1l-15.8,9.1v25.8l-12.4,23.9l12.4,23.9v25.8l15.8,9.1l-15.8,9.1v25.8l-12.4,23.9l12.4,23.9v25.8l15.8,9.1
				l-15.8,9.1v25.8l-12.4,23.9l12.4,23.9v25.8l15.8,9.1l-15.8,9.1v25.8l-12.4,23.9l12.4,23.9v25.8l22.3,12.9l14.5,22.8l27,1.2
				l22.3,12.9l15.9-9.2v18.2l22.3,12.9l14.5,22.8l27,1.2l22.3,12.9L88,709l27-1.2l14.5-22.8l22.3-12.9v-18.1l15.7,9.1l15.8-9.1v18.1
				l22.3,12.9l14.5,22.8L247,709l22.3,12.9l22.3-12.9l27-1.2l14.5-22.8l22.3-12.9v-18l15.6,9l15.9-9.2v18.2l22.3,12.9l14.5,22.8
				l27,1.2l22.3,12.9l22.3-12.9l26.9-1.2l14.5-22.8l22.3-12.9v-18.1l15.7,9.1l22.3-12.9l27-1.2l14.5-22.8l22.3-12.9v-25.8l12.5-23.9
				l-12.5-23.9V514l-15.8-9.1l15.8-9.1V470l12.5-23.9l-12.5-23.9v-25.8l-15.8-9.1l15.8-9.1v-25.8l12.5-23.9l-12.5-23.9v-25.8
				l-15.8-9.1l15.8-9.1v-25.8l12.5-23.9l-12.5-23.9v-25.8l-15.8-9.1l15.8-9.1L661,116.9L661,116.9z M594.8-103l24.6,1.1l13.3,20.8
				l19.9,11.5v23L664-24.7L652.6-2.8v23l-14.9,8.6L624.1,7.6l-27-1.2L574.9-6.5l-15.7,9.1v-18.3l-15.7-9.1l15.7-9.1v-25.8l12.5-23.9
				L560-105.9l14.9-8.6L594.8-103z M562.1,622.4L552,641.8l-21.7-1L517,620l-19.9-11.5v-17.3l25.2-1.1l13.5-21.3l14.9,8.6v23
				L562.1,622.4z M394,641.8l-10.1-19.4l11.4-21.9v-23l14.9-8.6l13.5,21.3l25,1.1v17.3L428.9,620l-13.3,20.8L394,641.8z
				 M358.5,622.4l-10.1,19.4l-21.9-1L313.2,620l-19.9-11.5v-17.3l25.3-1.1l13.6-21.3l14.9,8.6v23L358.5,622.4z M190.4,641.8
				l-10.1-19.4l11.4-21.9v-23l14.9-8.6l13.5,21.2l25.2,1.1v17.3L225.3,620l-13.3,20.8L190.4,641.8z M154.8,622.4l-10.1,19.4l-21.7-1
				L109.7,620l-19.9-11.5v-17.3l25.2-1.1l13.5-21.3l14.9,8.6v23L154.8,622.4z M-13.3,641.8l-10.1-19.4l11.4-21.9v-23l14.9-8.6
				l13.5,21.3l25,1.1v17.3L21.5,620L8.2,640.8L-13.3,641.8z M-23.4-83.6l10-19.3l21.6,0.9l13.3,20.8l19.9,11.5v17.1l-25,1.1
				L2.9-30.1L-12-38.7v-23L-23.4-83.6z M144.8-102.8l10,19.3l-11.4,21.9v23l-14.9,8.6L115-51.3l-25.2-1.1v-17.1l19.9-11.5l13.3-20.8
				L144.8-102.8z M180.3-83.6l10-19.3l21.8,1l13.3,20.8l19.9,11.5v17.1l-25.2,1.1l-13.5,21.2l-14.9-8.6v-23L180.3-83.6z
				 M348.4-102.8l10,19.3l-11.4,21.9v23l-14.9,8.6l-13.6-21.3l-25.3-1.1v-17.1l19.9-11.5l13.3-20.8L348.4-102.8z M383.9-83.6
				l10-19.3l21.7,0.9l13.3,20.8l19.9,11.5v17.1l-25,1.1l-13.6,21.3l-14.9-8.6v-23L383.9-83.6z M552.1-102.8l10,19.3l-11.4,21.9v23
				l-14.9,8.6l-13.5-21.3l-25.2-1.1v-17.1L517-81.1l13.3-20.8L552.1-102.8z M530.3,52.5l-11.7-18.3l11.7-18.3l21.8-1l10,19.2
				L552,53.5L530.3,52.5z M550.7,6.5l-25.2,1.1l-13.5,21.2l-14.9-8.6V2.9l25.2-1.1l13.5-21.3l14.9,8.6V6.5z M495.7,112.2l-10-19.2
				l10.1-19.5l21.7,1l11.7,18.4l-11.7,18.4L495.7,112.2z M495.7,229.8l-9.9-19.1l10-19.2l21.9,1l11.6,18.2l-11.6,18.2L495.7,229.8z
				 M495.9,347.8l-10.1-19.5l10-19.2l21.8,1l11.7,18.4l-11.7,18.4L495.9,347.8z M495.8,465.4L485.8,446l10-19.3l21.8,1l11.7,18.4
				l-11.7,18.4L495.8,465.4z M495.8,582.9l-10-19.3l10.1-19.4l21.7,1l11.7,18.4L517.6,582L495.8,582.9z M488.8,513.9V532L473,523
				l-15.9,9.2v-18.2l-15.7-9.1l15.7-9.1v-18.3l15.9,9.2l15.7-9.1v18.1l15.8,9.1L488.8,513.9z M428.5,582l-11.7-18.4l11.7-18.4
				l21.6-1l10.1,19.4l-10,19.3L428.5,582z M394,524.2l-10.1-19.4l10-19.3l21.7,1l11.7,18.4l-11.7,18.4L394,524.2z M326.5,523.3
				l-11.7-18.4l11.7-18.4l21.9-1l10,19.3l-10.1,19.4L326.5,523.3z M292,582.9l-10-19.3l10.1-19.4l21.9,1l11.7,18.4L313.9,582
				L292,582.9z M285,513.9v18l-15.6-9l-15.8,9.1v-18.1l-15.7-9.1l15.7-9.1v-18.2l15.7,9.1l15.6-9v18.2l15.7,9.1L285,513.9z
				 M224.8,582l-11.7-18.4l11.7-18.4l21.7-1l10.1,19.4l-10,19.3L224.8,582z M190.3,524.2l-10.1-19.4l10-19.3l21.8,1l11.7,18.4
				l-11.7,18.4L190.3,524.2z M122.9,523.3l-11.7-18.4l11.7-18.4l21.8-1l10,19.3l-10.1,19.4L122.9,523.3z M88.4,582.9l-10-19.3
				l10.1-19.4l21.7,1l11.7,18.4L110.2,582L88.4,582.9z M81.4,513.9V532L65.7,523l-15.9,9.2v-18.2L34,504.8l15.8-9.1v-18.2l15.9,9.2
				l15.7-9.1v18.2l15.7,9.1L81.4,513.9z M21.1,582L9.4,563.6l11.7-18.4l21.6-1l10.1,19.4l-10,19.3L21.1,582z M42.8,426.7l10,19.3
				l-10.1,19.4l-21.6-1L9.4,446l11.7-18.4L42.8,426.7z M42.8,309.1l10,19.2l-10.1,19.4l-21.6-1L9.4,328.4L21.1,310L42.8,309.1z
				 M42.8,191.5l10,19.1l-9.9,19.1l-21.7-1L9.6,210.6l11.6-18.2L42.8,191.5z M42.7,73.5L52.8,93l-10,19.2l-21.7-1L9.4,92.8
				l11.7-18.4L42.7,73.5z M42.7-44.1l10.1,19.4l-10,19.3L21.1-6.4L9.4-24.8l11.7-18.4L42.7-44.1z M49.8,25V6.7l15.9,9.2l15.7-9.1V25
				l15.7,9.1l-15.7,9.1v18.1l-15.7-9.1l-15.9,9.2V43.3L34,34.1L49.8,25z M110.2-43.2L122-24.8L110.2-6.4l-21.8,1l-10-19.3l10.1-19.4
				L110.2-43.2z M144.8,14.8l10,19.3l-10.1,19.4l-21.7-1l-11.7-18.4L123,15.7L144.8,14.8z M212.1,15.7l11.7,18.4l-11.7,18.4l-21.7,1
				L180.2,34l10-19.3L212.1,15.7z M246.5-44.1l10.1,19.4l-10,19.3l-21.8-1l-11.7-18.4l11.7-18.4L246.5-44.1z M253.6,25V6.8l15.7,9.1
				l15.6-9V25l15.7,9.1L285,43.2v18l-15.6-9l-15.7,9.1V43.2l-15.7-9.1L253.6,25z M313.9-43.2l11.7,18.4L313.9-6.4l-21.9,1l-10-19.3
				l10.1-19.4L313.9-43.2z M348.4,14.8l10,19.3l-10.1,19.4l-21.8-1l-11.7-18.4l11.7-18.4L348.4,14.8z M415.6,15.7l11.7,18.4
				l-11.7,18.4l-21.6,1L383.9,34l10-19.3L415.6,15.7z M448.8,48v17.1l-25,1.1l-13.5,21.3l-14.9-8.6V61.8l25-1.1l13.5-21.3L448.8,48z
				 M450.1,426.7l10.1,19.4l-10,19.3l-21.7-1L416.8,446l11.7-18.4L450.1,426.7z M469.6,446.1L458,423.7l15-8.7l14.9,8.6L476.3,446
				l11.6,22.4L473,477l-15-8.6L469.6,446.1z M448.8,418.3l-25,1.1l-13.5,21.3l-14.9-8.6V415l25-1.1l13.5-21.3l14.9,8.6V418.3z
				 M332.1,440.7l-13.5-21.3l-25.3-1.1v-17.1l14.9-8.6l13.5,21.3L347,415v17.1L332.1,440.7z M292,465.4l-10-19.3l10.1-19.4l21.8,1
				l11.7,18.4l-11.7,18.4L292,465.4z M191.6,432.1V415l25.2-1.1l13.6-21.3l14.9,8.6v17.1l-25.2,1.1l-13.6,21.3L191.6,432.1z
				 M128.5,440.7L115,419.4l-25.2-1.1v-17.1l14.9-8.6l13.6,21.3l25.2,1.1v17.1L128.5,440.7z M88.4,465.4l-10-19.3l10.1-19.4l21.7,1
				L122,446l-11.7,18.4L88.4,465.4z M80.6,468.4L65.7,477l-15-8.7L62.3,446l-11.6-22.3l15-8.7l14.9,8.6L69,446.1L80.6,468.4z
				 M88.4,112.2l-10-19.3l10.1-19.4l21.7,1L122,92.8l-11.7,18.4L88.4,112.2z M69,92.9l11.6,22.3l-14.9,8.6l-15-8.6L62.3,93
				L50.6,70.6l15.1-8.7l14.9,8.6L69,92.9z M89.8,120.5l25.2-1.1l13.6-21.3l14.9,8.6V124l-25.2,1.1l-13.6,21.3l-14.9-8.6V120.5z
				 M206.5,98.1l13.6,21.3l25.2,1.1v17.3l-14.9,8.6l-13.6-21.3l-25.2-1.1v-17.3L206.5,98.1z M246.5,73.5l10.1,19.4l-10,19.3l-21.8-1
				l-11.7-18.4l11.7-18.4L246.5,73.5z M347,106.7V124l-25.3,1.1l-13.5,21.3l-14.9-8.6v-17.3l25.3-1.1l13.5-21.3L347,106.7z M394,171
				l-10.1-19.4l10-19.3l21.7,1l11.7,18.4l-11.7,18.4L394,171z M393.8,288.6l-9.9-19l10-19.3l21.7,0.9l11.6,18.2l-11.6,18.2
				L393.8,288.6z M394,406.6l-10.1-19.4l10-19.3l21.7,1l11.7,18.4l-11.7,18.4L394,406.6z M386.9,337.5v18.3l-15.9-9.2l-15.6,9v-18.2
				l-15.7-9.1l15.7-9.1v-18.5l15.6,9l15.9-9.2v18.6l15.7,9.1L386.9,337.5z M326.5,405.7l-11.7-18.4l11.7-18.4l21.9-1l10,19.3
				l-10.1,19.4L326.5,405.7z M285,396.4v18l-15.6-9l-15.7,9.1v-18.1l-15.7-9.1l15.7-9.1V360l15.7,9.1l15.6-9v18.2l15.7,9.1
				L285,396.4z M190.3,406.6l-10.1-19.4l10-19.3l21.8,1l11.7,18.4l-11.7,18.4L190.3,406.6z M122.9,405.7l-11.7-18.4l11.7-18.4
				l21.8-1l10,19.3l-10.1,19.4L122.9,405.7z M136.1,328.4l15.7-9.1v-18.5l15.7,9.1l15.7-9.1v18.5l15.7,9.1l-15.7,9.1v18.2l-15.7-9.1
				l-15.7,9.1v-18.2L136.1,328.4z M144.8,250.4l10,19.3l-9.9,19l-22-1l-11.6-18.2l11.6-18.2L144.8,250.4z M144.8,132.3l10,19.3
				L144.7,171l-21.7-1l-11.7-18.4l11.7-18.4L144.8,132.3z M151.8,201.3v-18.1l15.7,9.1l15.7-9.1v18.1l16.1,9.3l-16.1,9.3v18.2
				l-15.7-9.1l-15.7,9.1v-18.2l-16.1-9.3L151.8,201.3z M212.1,133.3l11.7,18.4l-11.7,18.4l-21.7,1l-10.1-19.4l10-19.3L212.1,133.3z
				 M253.6,142.6v-18.2l15.7,9.1l15.6-9v18.2l15.7,9.1l-15.7,9.1v18.5l-15.6-9l-15.7,9.1v-18.5l-15.7-9.1L253.6,142.6z M348.4,132.3
				l10,19.3L348.3,171l-21.8-1l-11.7-18.4l11.7-18.4L348.4,132.3z M321.8,178.3l25.3,1.1v17.1l-15.1,8.7l-13.4-20.9l-25.3-1.1v-17.6
				l14.9-8.6L321.8,178.3z M332.1,323.1l-13.5-21.3l-25.3-1.1v-17.1l15.1-8.7l13.4,20.9l25.3,1.1v17.6L332.1,323.1z M292,347.8
				l-10-19.3l10.1-19.4l21.8,1l11.7,18.4l-11.7,18.4L292,347.8z M191.6,314.5V297l25.2-1.1l13.4-20.9l15.1,8.7v17.1l-25.2,1.1
				l-13.6,21.3L191.6,314.5z M206.7,216l13.4,20.9l25.2,1.1v17.3l-15.1,8.7l-13.4-20.9l-25.2-1.1v-17.3L206.7,216z M246.7,191.5
				l9.9,19l-10,19.3l-21.8-1l-11.6-18.2l11.6-18.2L246.7,191.5z M292,229.8l-10-19.3l9.9-19l22,1l11.6,18.2l-11.6,18.2L292,229.8z
				 M285,278.8v18l-15.6-9l-15.7,9.1v-18.1l-16.1-9.3l16.1-9.3V242l15.7,9.1l15.6-9v18.2l16.1,9.3L285,278.8z M272.5,210.5
				l11.6,22.4l-14.8,8.6l-14.9-8.6l11.6-22.3l-11.5-22.1l14.7-8.5l14.7,8.5L272.5,210.5z M190.1,288.6l-9.9-19l10-19.3l21.8,1
				l11.6,18.2l-11.6,18.2L190.1,288.6z M170.8,269.6l11.5,22.1l-14.8,8.5l-14.8-8.5l11.5-22.1l-11.6-22.3l14.9-8.6l14.9,8.6
				L170.8,269.6z M224.8,310l21.7-1l10.1,19.4l-10,19.3l-21.8-1l-11.7-18.4L224.8,310z M266,328.5l-11.7-22.4l14.9-8.6l14.9,8.6
				l-11.7,22.5l11.6,22.4l-14.8,8.5l-14.9-8.6L266,328.5z M348.4,250.4l10,19.3l-9.9,19l-22-1l-11.6-18.2l11.6-18.2L348.4,250.4z
				 M367.9,269.6l-11.6-22.4l14.8-8.6l15,8.7l-11.6,22.2l11.5,22l-14.9,8.6l-14.7-8.5L367.9,269.6z M347,242l-25.3,1.1l-13.4,20.9
				l-15.1-8.7v-17.3l25.3-1.1L332,216l15.1,8.7V242z M245.2,165.6v17.6l-25.2,1.1l-13.4,20.9l-15.1-8.7v-17.1l25.2-1.1l13.6-21.3
				L245.2,165.6z M216.8,360.7l-25.2-1.1v-17.3l14.9-8.6l13.6,21.3l25.2,1.1v17.3l-14.9,8.6L216.8,360.7z M293.3,373.4v-17.3
				l25.3-1.1l13.5-21.3l14.9,8.6v17.3l-25.3,1.1L308.2,382L293.3,373.4z M386.9,219.9v18.3l-15.9-9.2l-15.6,9v-18.2l-16.1-9.3
				l16.1-9.3v-18l15.6,9l15.9-9.2v18.2l16.1,9.3L386.9,219.9z M374.5,151.6l11.6,22.4l-15,8.7l-14.9-8.6l11.7-22.5l-11.6-22.4
				l14.8-8.6l15,8.7L374.5,151.6z M313.9,111.2l-21.9,1l-10-19.3L292,73.5l21.8,1l11.7,18.4L313.9,111.2z M272.5,92.9l11.6,22.3
				l-14.8,8.6l-14.9-8.6l11.6-22.3l-11.7-22.4l14.9-8.6l14.9,8.6L272.5,92.9z M170.8,151.6l11.7,22.4l-14.9,8.6l-14.9-8.6l11.7-22.4
				l-11.6-22.3l14.9-8.6l14.9,8.6L170.8,151.6z M104.7,157l13.6,21.3l25.2,1.1v17.1l-15.1,8.7L115,184.3l-25.2-1.1v-17.6L104.7,157z
				 M88.4,229.8l-10-19.3l9.9-19l22,1l11.6,18.2l-11.6,18.2L88.4,229.8z M69,210.5l11.6,22.3l-14.9,8.6l-14.9-8.6l11.5-22.1
				l-11.5-22.1l15-8.6l14.8,8.5L69,210.5z M89.8,238.1L115,237l13.4-20.9l15.1,8.7V242l-25.2,1.1l-13.3,20.9l-15.1-8.7
				C89.8,255.4,89.8,238.1,89.8,238.1z M104.9,274.9l13.3,20.9l25.2,1.1v17.6l-14.9,8.6L115,301.8l-25.2-1.1v-17.1L104.9,274.9z
				 M88.4,347.8l-10-19.3l10.1-19.4l21.7,1l11.7,18.4l-11.7,18.4L88.4,347.8z M69,328.5l11.6,22.3l-14.9,8.6l-15.1-8.7l11.6-22.4
				l-11.5-22.2l15-8.6l14.9,8.6L69,328.5z M89.8,356.1L115,355l13.6-21.3l14.9,8.6v17.3l-25.2,1.1L104.7,382l-14.9-8.6V356.1z
				 M164.2,387.2l-11.6-22.3l14.9-8.6l14.9,8.6l-11.6,22.3l11.7,22.4l-14.9,8.6l-14.9-8.6L164.2,387.2z M224.8,427.6l21.7-1
				l10.1,19.4l-10,19.3l-21.8-1L213.1,446L224.8,427.6z M266,446.1l-11.7-22.4l14.9-8.6l14.9,8.6l-11.7,22.5l11.6,22.4l-14.8,8.5
				l-14.9-8.6L266,446.1z M367.9,387.2l-11.6-22.4l14.8-8.5l15,8.7l-11.6,22.2l11.6,22.4l-15,8.7l-14.9-8.6L367.9,387.2z M433.9,382
				l-13.5-21.3l-25-1.1v-17.3l14.9-8.6l13.5,21.3l25,1.1v17.3L433.9,382z M450.1,309.1l10.1,19.4l-10,19.3l-21.7-1l-11.7-18.4
				l11.7-18.4L450.1,309.1z M469.6,328.5L458,306.1l15-8.7l14.9,8.6l-11.6,22.3l11.7,22.4l-15,8.6l-15-8.7L469.6,328.5z
				 M448.8,300.8l-25,1.1l-13.5,21.3l-14.9-8.6v-17.6l25-1.1l13.4-20.9l15.1,8.7V300.8z M433.7,264.1l-13.4-20.9l-25-1.1v-17.3
				l15.1-8.7l13.4,20.9l25,1.1v17.3L433.7,264.1z M450.3,191.5l9.9,19l-10,19.3l-21.7-1l-11.6-18.2l11.6-18.2L450.3,191.5z
				 M469.6,210.5l-11.5-22l14.9-8.6l14.8,8.6l-11.5,22.2l11.5,22.2l-14.8,8.6l-15-8.6L469.6,210.5z M448.8,183.2l-25,1.1l-13.4,20.9
				l-15.1-8.7v-17.1l25-1.1l13.5-21.3l14.9,8.6V183.2z M433.9,146.4l-13.5-21.3l-25-1.1v-17.3l14.9-8.6l13.5,21.3l25,1.1v17.3
				L433.9,146.4z M450.1,73.5l10.1,19.4l-10,19.3l-21.7-1l-11.7-18.4l11.7-18.4L450.1,73.5z M469.6,92.9L458,70.5l15-8.7l15,8.6
				L476.3,93l11.6,22.2l-14.9,8.6l-15-8.7L469.6,92.9z M402.6,92.8l-15.7,9.1v18.3l-15.9-9.2l-15.6,9v-18.2l-15.7-9.1l15.7-9.1v-18
				l15.6,9l15.9-9.2v18.2L402.6,92.8z M321.8,60.7l25.3,1.1v17.1l-14.9,8.6l-13.5-21.3l-25.3-1.1V48l14.9-8.6L321.8,60.7z M245.2,48
				v17.1l-25.2,1.1l-13.6,21.3l-14.9-8.6V61.8l25.2-1.1l13.6-21.3L245.2,48z M198.9,92.8l-15.7,9.1v18.2l-15.7-9.1l-15.7,9.1v-18.2
				l-15.7-9.1l15.7-9.1V65.7l15.7,9.1l15.7-9.1v18.1L198.9,92.8z M118.2,60.7l25.2,1.1v17.1l-14.9,8.6L115,66.2l-25.2-1.1V48
				l14.9-8.6L118.2,60.7z M49.8,142.7v-18.4l15.9,9.2l15.7-9.1v18.2l15.7,9.1l-15.7,9.1v18.5l-15.7-9.1l-15.9,9.2v-18.4L34,151.8
				L49.8,142.7z M49.8,260.4v-18.5l15.9,9.2l15.7-9.1v18.2l16.1,9.3l-16.1,9.3v18.1l-15.7-9.1L49.8,297v-18.4L34,269.5L49.8,260.4z
				 M49.8,378v-18.1l15.9,9.2l15.7-9.1v18.2l15.7,9.1l-15.7,9.1v18.1l-15.7-9.1l-15.9,9.2v-18.3L34,387.2L49.8,378z M89.8,491v-17.3
				l25.2-1.1l13.6-21.3l14.9,8.6v17.3l-25.2,1.1l-13.6,21.3L89.8,491z M136.1,446l15.7-9.1v-18.1l15.7,9.1l15.7-9.1v18.1l15.7,9.1
				l-15.7,9.1v18.2l-15.7-9.1l-15.7,9.1v-18.2L136.1,446z M216.8,478.3l-25.2-1.1v-17.3l14.9-8.6l13.6,21.3l25.2,1.1V491l-14.9,8.6
				L216.8,478.3z M293.3,491v-17.3l25.3-1.1l13.5-21.3l14.9,8.6v17.3l-25.3,1.1l-13.5,21.3L293.3,491z M339.7,446l15.7-9.1v-18
				l15.6,9l15.9-9.2v18.2l15.7,9.1l-15.7,9.1v18.3l-15.9-9.2l-15.6,9v-18.2L339.7,446z M420.3,478.3l-25-1.1v-17.3l14.9-8.6
				l13.5,21.3l25,1.1V491l-14.9,8.6L420.3,478.3z M488.8,396.3v18.2l-15.7-9.1l-15.9,9.2v-18.2l-15.7-9.1l15.7-9.1v-18.3l15.9,9.2
				l15.7-9.1v18l15.8,9.1L488.8,396.3z M488.8,278.6v18.3l-15.7-9.1l-15.9,9.2v-18.2l-16.1-9.3l16.1-9.3v-18.3L473,251l15.7-9.1
				v18.4l15.8,9.1L488.8,278.6z M488.8,160.9v18.4l-15.7-9.1l-15.9,9.2v-18.6l-15.7-9.1l15.7-9.1v-18.3l15.9,9.2l15.7-9.1v18.3
				l15.8,9.1L488.8,160.9z M488.8,43.3v18L473,52.2l-15.9,9.2V43.2l-15.7-9.1l15.7-9.1V6.7l15.9,9.2l15.7-9.1V25l15.8,9.1
				L488.8,43.3z M450.1-44.1l10.1,19.4l-10,19.3l-21.7-1l-11.7-18.4l11.7-18.4L450.1-44.1z M517.6-43.2l11.7,18.4L517.6-6.4l-21.8,1
				l-10-19.3l10.1-19.4L517.6-43.2z M476.3-24.7l11.6,22.3L473,6.2l-15-8.6l11.6-22.2L458-47l15-8.7l14.9,8.6L476.3-24.7z
				 M410.2-19.5l13.5,21.3l25,1.1v17.3l-14.9,8.6L420.3,7.5l-25-1.1v-17.3L410.2-19.5z M374.5,34l11.6,22.3l-15,8.7l-14.9-8.6
				L367.9,34l-11.6-22.4l14.8-8.6l15,8.7L374.5,34z M347,6.4l-25.3,1.1l-13.5,21.3l-14.9-8.6V2.9l25.3-1.1l13.5-21.2l14.9,8.6
				L347,6.4L347,6.4z M272.5-24.7l11.6,22.4l-14.8,8.5l-14.9-8.6l11.6-22.3l-11.7-22.4l14.9-8.6l14.9,8.6L272.5-24.7z M206.5-19.5
				l13.6,21.3l25.1,1.1v17.3l-14.9,8.6L216.8,7.5l-25.2-1.1v-17.3L206.5-19.5z M170.8,34l11.7,22.4l-14.9,8.6l-14.9-8.6L164.3,34
				l-11.6-22.3l14.9-8.6l14.9,8.6L170.8,34z M143.4,6.4l-25.2,1.1l-13.6,21.3l-14.9-8.6V2.9L115,1.8l13.6-21.3l14.9,8.6V6.4z
				 M69-24.7L80.6-2.4L65.7,6.2l-15-8.7l11.6-22.2L50.6-47l15-8.7l14.9,8.6L69-24.7z M2.9-19.5L16.4,1.8l25,1.1v17.3l-14.9,8.6
				L13,7.6l-25-1.1v-17.4L2.9-19.5z M-13.3,53.4L-23.4,34l10-19.2l21.7,1L20,34.1L8.3,52.5L-13.3,53.4z M-32.9,34l11.6,22.3
				l-15.1,8.7l-19.9-11.5l-24.6-1.1l-11.7-18.3l11.7-18.3l24.6-1.1l19.9-11.5l15,8.6L-32.9,34z M-12,61.8l25-1.1l13.5-21.2l14.9,8.6
				v17l-25,1.1L2.9,87.5L-12,78.9C-12,78.9-12,61.8-12,61.8z M2.9,98.1l13.6,21.3l25,1.1v17.4l-14.9,8.6L13,125.3l-25-1.1v-17.5
				L2.9,98.1z M-13.3,171.1l-10.1-19.5l9.9-19.1l21.7,1L20,151.8L8.3,170.2L-13.3,171.1z M-32.9,151.6l11.6,22.4l-15.1,8.7
				l-19.9-11.5l-24.6-1.1l-11.7-18.3l11.7-18.3l24.6-1.1l19.9-11.5l14.9,8.6L-32.9,151.6z M-12,179.4l25-1.1l13.5-21.2l14.9,8.6
				v17.4l-25,1.1L3.1,205.2l-15.1-8.7C-12,196.5-12,179.4-12,179.4z M3.1,216L16.4,237l25,1.1v17.4l-14.9,8.6L13,243l-25-1.1v-17.1
				L3.1,216z M-13.4,288.8l-10-19.1l10.1-19.4l21.6,0.9L20,269.5L8.3,287.8L-13.4,288.8z M-32.9,269.6l11.5,22.1l-14.9,8.6
				l-19.9-11.5l-24.6-1.1l-11.7-18.3l11.7-18.3l24.6-1.1l19.9-11.5l15.1,8.7L-32.9,269.6z M-12,297.1l25-1.1l13.5-21.2l14.9,8.6
				v17.3l-25,1.1L2.9,323.1l-14.9-8.6C-12,314.5-12,297.1-12,297.1z M2.9,333.7L16.4,355l25,1.1v17.1l-14.9,8.6L13,360.6l-25-1.1
				v-17.2L2.9,333.7z M-13.4,406.5l-10-19.2l10.1-19.4l21.6,1L20,387.1L8.3,405.5L-13.4,406.5z M-32.9,387.2l11.5,22.2l-15,8.6
				l-19.9-11.5l-24.6-1.1l-11.7-18.3l11.7-18.3l24.6-1.1l19.9-11.5l15,8.7L-32.9,387.2z M-12,414.8l25-1.1l13.5-21.2l14.9,8.6v17.2
				l-25,1.1L2.9,440.7l-14.9-8.6C-12,432.1-12,414.8-12,414.8z M2.9,451.3l13.6,21.3l25,1.1v17.2l-14.9,8.6L13,478.3l-25-1.1v-17.3
				L2.9,451.3z M-13.4,524.1l-10.1-19.3l10-19.3l21.6,1l11.7,18.3L8.2,523.2L-13.4,524.1z M-32.9,504.8l11.6,22.3l-15,8.7
				l-19.9-11.5l-24.6-1.1l-11.7-18.3l11.7-18.3l24.6-1.1l19.9-11.5l15,8.7L-32.9,504.8z M-12,532.5l25-1.1l13.5-21.2l14.9,8.6v17.1
				l-25,1.1L2.9,558.3l-14.9-8.6C-12,549.7-12,532.5-12,532.5z M62.3,563.7l-11.6-22.3l15-8.7l14.9,8.6l-11.7,22.4L80.5,586
				l-14.9,8.6l-15-8.7L62.3,563.7z M128.5,558.3L115,537l-25.2-1.1v-17.1l14.9-8.6l13.6,21.3l25.2,1.1v17.1L128.5,558.3z
				 M164.2,504.8l-11.6-22.3l14.9-8.6l14.9,8.6l-11.6,22.3l11.7,22.4l-14.9,8.6l-14.9-8.6L164.2,504.8z M191.6,532.5l25.2-1.1
				l13.6-21.3l14.9,8.6v17.1l-25.1,1.1l-13.6,21.3l-14.9-8.6L191.6,532.5L191.6,532.5z M266,563.7l-11.6-22.4l15-8.6l14.8,8.6
				l-11.7,22.5l11.6,22.3l-14.8,8.5l-14.9-8.6L266,563.7z M332.2,558.3L318.6,537l-25.3-1.1v-17.1l14.9-8.6l13.5,21.3l25.3,1.1v17.1
				L332.2,558.3z M367.9,504.8l-11.6-22.4l14.8-8.5l15,8.7l-11.6,22.2l11.6,22.4l-15,8.7l-14.9-8.6L367.9,504.8z M395.3,532.5
				l25-1.1l13.5-21.3l14.9,8.6v17.1l-25,1.1l-13.5,21.3l-14.9-8.6V532.5z M469.6,563.7L458,541.3l15-8.7l14.9,8.6l-11.6,22.4
				l11.6,22.3l-14.9,8.6l-15-8.7L469.6,563.7z M535.8,558.3L522.3,537l-25.2-1.1v-17.1l14.9-8.6l13.5,21.2l25.2,1.1v17.2
				L535.8,558.3z M552.1,485.5l10,19.3l-10,19.3l-21.8-1l-11.7-18.3l11.7-18.3L552.1,485.5z M571.6,504.8L560,482.5l14.9-8.6
				l19.9,11.5l24.6,1.1l11.7,18.3l-11.7,18.3l-24.6,1.1l-19.9,11.5l-14.9-8.6L571.6,504.8z M550.7,477.2l-25.2,1.1l-13.5,21.2
				l-14.9-8.6v-17.2l25.2-1.1l13.5-21.3l14.9,8.6V477.2z M535.8,440.7l-13.5-21.3l-25.2-1.1v-17.2l14.9-8.6l13.5,21.2l25.2,1.1v17.3
				L535.8,440.7z M552.1,367.9l10.1,19.4l-10,19.2l-21.8-1l-11.7-18.3l11.7-18.3L552.1,367.9z M571.6,387.2l-11.6-22.4l14.9-8.6
				l19.9,11.5l24.6,1.1l11.7,18.3l-11.7,18.3l-24.6,1.1l-19.9,11.5l-14.9-8.6L571.6,387.2z M550.7,359.5l-25.2,1.1l-13.5,21.2
				l-14.9-8.6v-17.1l25.2-1.1l13.5-21.3l14.9,8.6V359.5z M535.8,323.1l-13.5-21.3l-25.2-1.1v-17.3l14.9-8.6l13.5,21.2l25.2,1.1v17.4
				L535.8,323.1z M552,250.2l10.1,19.5l-10,19.2l-21.8-1l-11.7-18.3l11.7-18.3L552,250.2z M571.6,269.6l-11.7-22.4l15-8.6l19.9,11.5
				l24.6,1.1l11.7,18.3l-11.7,18.3l-24.6,1.1l-19.9,11.5l-14.8-8.6L571.6,269.6z M550.7,241.9l-25.2,1.1l-13.5,21.2l-14.9-8.6v-17.4
				l25.2-1.1l13.3-20.9l15.1,8.7V241.9z M535.7,205.2l-13.3-20.9l-25.2-1.1v-17.4l14.9-8.6l13.5,21.2l25.2,1.1v17.1L535.7,205.2z
				 M552.2,132.5l9.9,19.1L552,171.1l-21.7-1l-11.7-18.3l11.7-18.3L552.2,132.5z M571.6,151.6L560,129.4l14.8-8.6l19.9,11.5
				l24.6,1.1l11.7,18.3l-11.7,18.3l-24.6,1.1l-19.9,11.5l-15-8.6L571.6,151.6z M550.7,124.2l-25.2,1.1l-13.5,21.2l-14.9-8.6v-17.4
				l25.2-1.1l13.5-21.3l14.9,8.6V124.2z M535.8,87.5l-13.5-21.3l-25.2-1.1v-17l14.9-8.6l13.5,21.2l25.2,1.1v17.1L535.8,87.5z
				 M571.6,34L560,11.8l14.8-8.6l19.9,11.5l24.6,1.1l11.7,18.3l-11.7,18.3l-24.6,1.1l-19.9,11.5l-14.9-8.6L571.6,34z M415.2-139.9
				l13.3-20.8l24.6-1.1l19.9-11.5l19.9,11.5l24.6,1.1l13.3,20.8l19.9,11.5v17.3l-25.2,1.1l-14.5,22.8l-22.3,12.9v18.1L473-65.4
				l-15.9,9.2v-18.2l-22.3-12.9l-14.5-22.8l-25-1.1v-17.3L415.2-139.9z M386-105.8l-11.6,22.2l12.5,23.9v25.8l15.7,9.1l-15.7,9.1
				V2.6l-15.9-9.2l-15.6,9v-18.2l-15.7-9.1l15.7-9.1v-25.8l12.5-23.9l-11.6-22.4l14.8-8.5L386-105.8z M211.5-139.9l13.3-20.8
				l24.6-1.1l19.9-11.5l19.9,11.5l24.6,1.1l13.3,20.8l19.9,11.5v17.3l-25.3,1.1l-14.5,22.8l-22.3,12.9v18l-15.6-9l-15.7,9.1v-18.1
				l-22.3-12.9l-14.5-22.8l-25.1-1.1v-17.3L211.5-139.9z M182.4-105.8l-11.6,22.3l12.4,23.9v25.8l15.7,9.1l-15.7,9.1V2.5l-15.7-9.1
				l-15.7,9.1v-18.2l-15.7-9.1l15.7-9.1v-25.8l12.4-23.9l-11.6-22.3l14.9-8.6L182.4-105.8z M7.9-139.9l13.3-20.8l24.6-1.1l19.9-11.5
				l19.9,11.5l24.6,1.1l13.3,20.8l19.9,11.5v17.3l-25.2,1.1l-14.5,22.8L81.4-74.4v18.1l-15.7-9.1l-15.9,9.2v-18.2L27.5-87.3
				L13-110.1l-25-1.1v-17.3L7.9-139.9z M-125.4-24.7l11.4-21.9v-23l19.9-11.5l13.3-20.8l24.6-1.1l19.9-11.5l15,8.7l-11.6,22.2
				l12.5,23.9v25.8l15.7,9.1l-15.7,9.1V2.7l-15.9-9.2L-58.6,6.4l-27,1.2l-13.5,21.2l-14.9-8.6v-23L-125.4-24.7z M-125.4,93
				l11.4-21.9v-23l14.9-8.6l13.5,21.2l27,1.2l22.3,12.9l15.9-9.2v18.2l15.7,9.1l-15.7,9.1v18.5l-15.9-9.2l-22.3,12.9l-27,1.2
				l-13.5,21.2l-14.9-8.6v-23L-125.4,93z M-125.4,210.6l11.4-21.9v-23l14.9-8.6l13.5,21.2l27,1.2l22.3,12.9l15.9-9.2v18.1l16.1,9.3
				l-16.1,9.3v18.1l-15.9-9.2l-22.3,12.9l-27,1.2l-13.5,21.2l-14.9-8.6v-23L-125.4,210.6z M-125.4,328.3l11.4-21.9v-23l14.9-8.6
				l13.5,21.2l27,1.2l22.3,12.9l15.9-9.2v18.4l15.7,9.1l-15.7,9.1v18.2l-15.9-9.2l-22.3,12.9l-27,1.2l-13.5,21.2l-14.9-8.6v-23
				L-125.4,328.3z M-125.4,446l11.4-21.9v-23l14.9-8.6l13.5,21.2l27,1.2l22.3,12.9l15.9-9.2v18.4l15.7,9.1l-15.7,9.1v18.3l-15.9-9.2
				l-22.3,12.9l-26.9,1.2l-13.5,21.2l-14.9-8.6v-23L-125.4,446z M-56.2,641.9l-24.6-1.1L-94.1,620l-19.9-11.5v-23l-11.4-21.9
				l11.4-21.9v-23l14.9-8.6l13.5,21.2l27,1.2l22.3,12.9l15.9-9.2v18.3l15.7,9.1l-15.7,9.1v25.8l-12.5,23.9l11.6,22.3l-15,8.7
				L-56.2,641.9z M123.5,678.8l-13.3,20.8l-24.6,1.1l-19.9,11.5l-19.9-11.5l-24.6-1.1L7.9,678.8L-12,667.3v-17.1l25-1.1l14.5-22.8
				l22.3-12.9v-18.3l15.9,9.2l15.7-9.1v18.2l22.3,12.9l14.5,22.8l25.2,1.1v17.1L123.5,678.8z M152.6,644.8l11.7-22.4l-12.4-23.9
				v-25.8l-15.7-9.1l15.7-9.1v-18.1l15.7,9.1l15.7-9.1v18.1l15.7,9.1l-15.7,9.1v25.8l-12.4,23.9l11.6,22.4l-14.9,8.6L152.6,644.8z
				 M327.2,678.8l-13.3,20.8l-24.6,1.1l-19.9,11.5l-19.9-11.5l-24.6-1.1l-13.3-20.8l-19.9-11.5v-17.1l25.1-1.1l14.5-22.8l22.3-12.9
				v-18.2l15.7,9.1l15.6-9v18.2l22.3,12.9l14.5,22.8l25.3,1.1v17.1L327.2,678.8z M356.2,644.8l11.7-22.5l-12.5-23.9v-25.8l-15.7-9.1
				l15.7-9.1v-18l15.6,9l15.9-9.2v18.2l15.7,9.1l-15.7,9.1v25.8l-12.5,23.9l11.6,22.3l-15,8.7L356.2,644.8z M530.8,678.8l-13.3,20.8
				l-24.6,1.1L473,712.1l-19.9-11.5l-24.6-1.1l-13.3-20.8l-19.9-11.5v-17.1l25-1.1l14.5-22.8l22.3-12.9v-18.3l15.9,9.2l15.7-9.1
				v18.2l22.3,12.9l14.5,22.8l25.2,1.1v17.1L530.8,678.8z M664,563.7l-11.4,21.9v23L632.7,620l-13.3,20.8l-24.6,1.1l-19.9,11.5
				l-14.9-8.6l11.7-22.4l-12.5-23.9v-25.8l-15.7-9.1l15.7-9.1v-18.2l15.7,9.1l22.3-12.9l27-1.2l13.5-21.2l14.9,8.6v23L664,563.7z
				 M664,446l-11.4,21.9v23l-14.9,8.6l-13.5-21.2l-27-1.2l-22.3-12.9l-15.7,9.1v-18.2l-15.7-9.1l15.7-9.1v-18.3l15.7,9.1l22.3-12.9
				l27-1.2l13.5-21.2l14.9,8.6v23L664,446z M664,328.3l-11.4,21.9v23l-14.9,8.6l-13.5-21.2l-27-1.2l-22.3-12.9l-15.7,9.1v-18.1
				l-15.7-9.1l15.7-9.1V301l15.7,9.1l22.3-12.9l27-1.2l13.5-21.2l14.9,8.6v23L664,328.3z M664,210.6l-11.4,21.9v23l-14.9,8.6
				L624.1,243l-27-1.2l-22.3-12.9l-15.7,9.1v-18.1l-16.1-9.3l16.1-9.3v-18l15.7,9.1l22.3-12.9l27-1.2l13.5-21.2l14.9,8.6v23
				L664,210.6z M652.6,137.9l-14.9,8.6l-13.5-21.2l-27-1.2l-22.3-12.9l-15.7,9.1v-18.4l-15.7-9.1l15.7-9.1V65.7l15.7,9.1l22.3-12.9
				l27-1.2l13.5-21.2l14.9,8.6v23L664,93l-11.4,21.9V137.9z"/>
		</g>
	</g>
</g>
<g id="Layer_2_1_">
	<path id="XMLID_60_" class="st3" d="M270.1,517.2l-55.2-31.9l-67.3-3l-36.2-56.8l-55.2-31.9v-63.8l-31.1-59.8l31.1-59.8v-63.8
		l55.2-31.9l36.2-56.8l67.3-3l55.2-31.9L325.4,55l67.3,3l36.2,56.8l55.2,31.9v63.8l31.1,59.8l-31.1,59.8v63.8l-55.2,31.9l-36.2,56.8
		l-67.3,3L270.1,517.2z M150.8,476.9l65.7,2.9l53.6,31l53.6-31l65.7-2.9l35.4-55.5l53.6-31v-61.9l30.4-58.4l-30.4-58.4v-61.9
		l-53.6-31l-35.4-55.5l-65.7-2.9l-53.6-31l-53.6,31l-65.7,2.9l-35.4,55.5l-53.6,30.9v61.9l-30.4,58.4l30.4,58.4v61.9l53.6,31
		l0.4,0.6L150.8,476.9z"/>
</g>
<g id="XMLID_1_">
	<path id="XMLID_2_" class="st4" d="M137.3,230.1c-2.6,3.3-9.6,9.4-20.3,9.4c-15.9,0-28.8-12.1-28.8-28.8s12.8-28.8,28.8-28.8
		c11.4,0.2,20.3,5.9,25.2,14.6l-6.6,1.7c-3.8-6.1-10.8-9.9-18.6-9.9c-12.7,0-22.1,9.1-22.1,22.5c0,13.5,9.7,22.5,22.3,22.5
		c10.9,0,18-6.4,20.1-11.2V215h-16.9v-5.4H143v28.8h-5.7C137.3,231.9,137.4,230.2,137.3,230.1L137.3,230.1L137.3,230.1z"/>
	<path id="XMLID_7_" class="st4" d="M176.8,181.8c15.9,0,28.8,12.1,28.8,28.8s-12.9,28.8-28.8,28.8s-28.8-12.1-28.8-28.8
		S160.9,181.8,176.8,181.8z M176.8,233.1c12.5,0,22.1-9.2,22.1-22.5c0-13.5-9.6-22.5-22.1-22.5c-12.6,0-22.1,9-22.1,22.5
		C154.7,223.9,164.2,233.1,176.8,233.1z M163.7,173.8c0-2.1,1.7-3.8,3.9-3.8c2.1,0,3.9,1.7,3.9,3.8c0,2.2-1.7,3.9-3.9,3.9
		C165.4,177.7,163.7,176,163.7,173.8z M182.4,173.8c0-2.1,1.7-3.8,3.9-3.8c2.2,0,3.9,1.7,3.9,3.8c0,2.2-1.7,3.9-3.9,3.9
		C184.2,177.7,182.4,176,182.4,173.8z"/>
	<path id="XMLID_12_" class="st4" d="M252.6,188.9l-32.5,38.9c-2.3,2.7-4.1,4.5-4.1,4.6l0.1,0.1c0.1,0,3.1-0.2,7.1-0.2h29.4v6.1
		h-45.2v-6l33-39.1c1.6-1.9,4.2-4.2,4.2-4.3l-0.1-0.1c-0.1,0-3.1,0.2-7.2,0.2h-29.1v-6.1h44.4L252.6,188.9L252.6,188.9z"/>
	<path id="XMLID_14_" class="st4" d="M297.8,232.2v6.1h-36.2v-55.5h6.5v49.4H297.8z"/>
	<path id="XMLID_16_" class="st4" d="M341,232.2v6.1h-37.5v-55.5h37v6.1h-30.5v17.1h24.5v5.8h-24.5v20.4L341,232.2L341,232.2z"/>
	<path id="XMLID_18_" class="st4" d="M401.5,182.9v55.5h-6.4v-25c0-8.6,0.4-19.6,0.3-19.6h-0.1c-0.1,0-2.9,5.1-4.8,8.4l-12.9,22.5
		h-3.4l-12.9-22.5c-2-3.3-4.8-8.4-4.8-8.4h-0.1c-0.1,0,0.3,11,0.3,19.6v25h-6.4v-55.5h6.1l13.8,23.4c4.8,8.1,5.6,10.3,5.7,10.3h0.1
		c0.1,0,1-2.2,5.7-10.3l13.8-23.4H401.5z"/>
	<path id="XMLID_20_" class="st4" d="M450.5,232.2v6.1H413v-55.5h37v6.1h-30.5v17.1H444v5.8h-24.5v20.4L450.5,232.2L450.5,232.2z"/>
	<path id="XMLID_22_" class="st4" d="M149.1,358.5l-29-39.8l-8.1,8.1v31.7H89.2v-95.6h23v15.6c0,15.9-0.4,20.5-0.3,20.5h0.1
		c0.1,0,2.9-3.3,12.6-13l23.2-23.1h28.1l-40.6,40.7l40.8,54.9L149.1,358.5L149.1,358.5z"/>
	<path id="XMLID_24_" class="st4" d="M197.5,358.5v-95.6h22.9v95.6H197.5z"/>
	<path id="XMLID_26_" class="st4" d="M335.8,262.9v95.6h-21.6l-19.5-26.6c-8.7-12-21.6-30.2-21.7-30.2h-0.1
		c-0.1,0,0.1,14.8,0.1,35.7v21.2H250v-95.6h21.6l20.4,27.3c6.1,8.2,20.8,28.8,20.9,28.8h0.1c0.1,0-0.1-16.9-0.1-34.3v-21.9
		L335.8,262.9L335.8,262.9z"/>
	<path id="XMLID_28_" class="st4" d="M433.9,350.7c-5.6,6-16.5,9.7-26,9.7c-27.5,0-49.6-20.9-49.6-49.7c0-28.8,22.1-49.7,49.6-49.7
		c18.6,0,34.8,9.8,43.4,25.4l-23.4,6.1c-4.5-5.5-12.6-8.9-20.1-8.9c-15.9,0-25.7,11.3-25.7,27c0,16.8,11.3,27.3,27,27.3
		c15.3,0,22-7.9,24.7-15v-0.1h-25.1v-18.4h44.7v54.1h-19.7c0-6.3,0.1-7.6,0.1-7.8L433.9,350.7L433.9,350.7z"/>
</g>
<g fill="#FFFFFF">
	<path d="M78.7,546.5c-2.3-0.1-4.6,0-7,0.1c-2.4,0.2-4.8,0.4-7.1,0.6c-2.3,0.3-4.6,0.6-6.8,0.9c-2.2,0.3-4.2,0.6-6,0.9
		c0.2,5.1,0.4,10.1,0.6,15.1c0.2,5,0.4,10,0.7,15.1c0.3,5.1,0.7,10.3,1.1,15.5c0.4,5.3,1,10.7,1.6,16.4c0,0.3-0.2,0.5-0.7,0.7
		c-0.5,0.2-1,0.3-1.5,0.3c-0.5,0-1-0.1-1.5-0.2c-0.5-0.2-0.8-0.5-0.9-1c-0.3-3.2-0.5-6.8-0.7-10.8c-0.2-4-0.4-8.1-0.6-12.2
		c-0.2-4.2-0.4-8.3-0.6-12.4c-0.2-4.1-0.5-7.9-0.7-11.3c-0.3-3.5-0.5-6.4-0.8-9c-0.3-2.5-0.6-4.3-0.9-5.4c-3.9,0-7.9,0.2-12.2,0.7
		c-4.3,0.5-8.4,0.9-12.4,1.4c-0.7,0.1-1.2,0.1-1.7-0.1c-0.5-0.2-0.7-0.5-0.8-0.8c-0.1-0.3,0-0.7,0.4-1.1c0.4-0.4,1.2-0.8,2.3-1.2
		c4.8-0.9,9.4-1.6,13.9-2.1c4.5-0.6,8.8-1.1,13.2-1.5c4.3-0.4,8.7-0.9,13.1-1.3c4.4-0.4,8.9-1,13.6-1.6c0.3,0,0.7,0.2,1.1,0.5
		c0.4,0.4,0.8,0.8,1.1,1.3c0.3,0.5,0.5,1,0.6,1.5C79,546,78.9,546.3,78.7,546.5z"/>
	<path d="M71.1,607.7c0.5,0.3,1.2-0.2,2.3-1.7c1.1-1.5,2.1-3.3,3.1-5.6c1-2.3,1.8-4.7,2.5-7.3c0.7-2.6,0.9-4.9,0.6-6.8
		c0-0.4,0.2-0.6,0.5-0.7c0.3-0.1,0.7-0.1,1.1-0.1c0.4,0,0.9,0,1.3,0.1c0.4,0.1,0.7,0.1,0.9,0.2c-0.1,1.5-0.3,3.3-0.5,5.5
		c-0.2,2.2-0.4,4.4-0.4,6.6c-0.1,2.2,0,4.2,0.2,6c0.2,1.8,0.8,3,1.6,3.5c0.7,0.5,1.6,0.4,2.5-0.1c1-0.5,1.9-1.2,2.8-2
		c0.9-0.8,1.7-1.5,2.4-2.1c0.7-0.6,1.2-0.8,1.4-0.6c-0.3,1.1-0.8,2.2-1.7,3.3c-0.9,1.1-1.8,2-2.9,2.7c-1.1,0.7-2.3,1.2-3.5,1.5
		c-1.2,0.3-2.3,0.2-3.3-0.1c-0.4-0.1-0.7-0.4-0.9-1.1c-0.2-0.7-0.4-1.5-0.6-2.4c-0.2-0.9-0.3-1.9-0.4-3c-0.1-1.1-0.2-2-0.3-2.9
		c-0.5,1.1-1.1,2.3-1.8,3.6c-0.7,1.3-1.3,2.6-2,3.8c-0.7,1.2-1.3,2.2-1.9,3.1c-0.6,0.9-1.1,1.4-1.5,1.5c-1.3,0.5-2.4,0.6-3.1,0.3
		c-0.7-0.3-1.2-0.7-1.5-1.2c-0.4-0.2-0.7-0.9-0.8-2c-0.2-1.2-0.3-2.6-0.4-4.4s-0.1-3.8-0.1-6.1c0-2.3,0-4.6,0-6.9c0-2.4,0-4.7-0.1-7
		c-0.1-2.3-0.2-4.4-0.3-6.3c0.5,0,0.9,0,1.4,0.1c0.4,0.1,0.8,0.1,1.2,0.2s0.7,0.3,1,0.6c0.3,1.5,0.4,4.2,0.1,8.1
		c-0.2,3.9-0.4,8.5-0.5,14c0,0.2,0,0.6,0,1.1c0,0.6,0.1,1.2,0.2,1.8c0.1,0.7,0.3,1.3,0.5,1.9C70.4,607.1,70.7,607.5,71.1,607.7z"/>
	<path d="M92.1,580.6c-0.1-0.6,0.2-0.7,0.9-0.4c0.7,0.3,1.4,0.6,2.1,0.9c0.3,1.5,0.5,2.7,0.6,3.6c0.1,0.9,0.2,1.7,0.3,2.5
		c0.1,0.8,0.1,1.7,0.2,2.6c0.1,0.9,0.2,2.2,0.3,3.7c0.6-1.5,1.3-2.9,2.2-4.2c0.9-1.3,2-2.4,3.3-3.3c1.4-0.9,3-1.6,4.9-2
		c1.9-0.4,4.2-0.6,6.8-0.4c0,0.5-0.2,1-0.5,1.3c-0.4,0.4-1.2,0.6-2.5,0.8c-1.9,0.3-3.6,1-5,1.9c-1.4,1-2.7,2.1-3.7,3.3
		c-1,1.3-1.9,2.6-2.5,4c-0.6,1.4-1.1,2.7-1.5,3.9c-0.1,0.6-0.1,1.4-0.2,2.5c-0.1,1.1-0.2,2.3-0.2,3.5c0,1.2-0.1,2.4-0.1,3.6
		c0,1.2,0,2.1,0.1,2.7c0.1,0.3-0.1,0.6-0.4,0.7c-0.4,0.2-0.8,0.3-1.2,0.3c-0.5,0.1-0.9,0-1.3-0.1c-0.4-0.1-0.6-0.4-0.6-0.7
		c0.1-6.8,0-12.7-0.5-17.7C93,589,92.5,584.5,92.1,580.6z"/>
	<path d="M122.4,592.6c1.5,0.3,2.9,0.6,4.1,0.8c1.2,0.2,2.5,0.4,3.7,0.5c1.2,0.2,2.6,0.3,4.1,0.4c1.5,0.1,3.3,0.3,5.3,0.5
		c0.6,0.7,1,1.2,1.2,1.6c0.2,0.4,0.5,1.1,0.8,2c-2.1-0.4-4.1-0.7-5.8-0.9c-1.7-0.2-3.4-0.4-5.1-0.5c-1.7-0.1-3.4-0.3-5.2-0.3
		c-1.8-0.1-3.8-0.2-6-0.4c-0.1,3.4,0,6.4,0.2,9c0.2,2.6,0.2,5,0,7.1c-0.4,0.1-0.7,0-0.9-0.2c-0.2-0.2-0.4-0.4-0.6-0.7
		c-0.2-0.3-0.4-0.5-0.6-0.8c-0.2-0.3-0.5-0.5-0.9-0.6c0.2-9.2,0.2-17.6-0.1-25.3c-0.3-7.7-0.3-15.1-0.2-22.1c0-1.3,0-2.8,0-4.5
		c0-1.7,0.1-3.4,0.1-5c0-1.6,0-3.1-0.1-4.4c-0.1-1.3-0.2-2.2-0.4-2.6c0.5-0.5,0.9-0.9,1.3-1c0.4-0.1,1.2-0.2,2.3-0.3
		c0.1,8.1,0.1,16.1,0,24c-0.1,7.9-0.1,15.4,0,22.5c1.1-0.9,2.3-1.9,3.6-3.2c1.3-1.3,2.4-2.5,3.5-3.7s2-2.2,2.8-3.1
		c0.8-0.9,1.3-1.4,1.5-1.4c0.6,0.5,1.2,1,1.8,1.3c0.6,0.4,0.9,0.5,0.9,0.4c-1.7,1.9-3.4,3.8-5.2,5.9
		C126.8,589.7,124.8,591.4,122.4,592.6z"/>
	<path d="M146.6,568.2c0.7-0.1,1.1,0.3,1.2,1.2c0.1,0.9,0,1.6-0.4,2.1c-0.7,0.6-1.2,1.1-1.4,1.5c-0.2,0.4-0.7,0.7-1.4,0.8
		c-0.4-0.1-0.7-0.1-1,0c-0.3,0-0.5-0.5-0.7-1.6c0.3-0.7,0.7-1.5,1.2-2.2C144.6,569.3,145.4,568.7,146.6,568.2z M146.9,581.2
		c0.3,3.2,0.6,6.7,0.7,10.5c0.1,3.8,0.4,7.8,0.7,12c0.3,2.1,0.5,3.8,0.8,5c0.3,1.2,0.5,2.3,0.6,3.4c-1.1,0.2-1.9,0.2-2.5,0
		c-0.6-0.2-1.2-0.5-1.7-0.8c-0.1-1.1-0.3-2.8-0.4-5.3c-0.2-2.5-0.3-5.1-0.5-8c-0.2-2.9-0.3-5.7-0.5-8.4c-0.2-2.7-0.3-4.9-0.4-6.5
		c0.3-0.1,0.5-0.3,0.6-0.6c0.2-0.3,0.3-0.5,0.5-0.7c0.2-0.2,0.5-0.4,0.8-0.5C145.9,581.1,146.3,581.1,146.9,581.2z"/>
	<path d="M165.5,580.7c1.7,0.3,3,0.6,4.1,1.1c1.1,0.5,2,1,2.6,1.5c0.6,0.6,1.1,1.1,1.5,1.7c0.4,0.6,0.7,1.2,1,1.7
		c-0.1,0.3-0.4,0.2-0.9-0.1c-0.6-0.3-1.1-0.7-1.6-1c-1.5-0.9-3.2-1.5-5.3-1.7c-2.1-0.2-4-0.1-5.7,0.3c-1.8,0.4-3.2,1.2-4.2,2.2
		c-1.1,1.1-1.3,2.4-0.8,3.9c0.5,1.5,1.5,2.9,2.8,4c1.4,1.1,2.9,2.1,4.5,3c1.7,0.9,3.3,1.7,5,2.4c1.7,0.7,3,1.5,4.1,2.2
		c1.3-0.7,2.5-1.3,3.4-1.8c0.9-0.5,1.8-1,2.5-1.4c0.7-0.4,1.5-0.8,2.2-1.2c0.8-0.4,1.6-0.8,2.6-1.2c0.1-0.1,0.2-0.1,0.3-0.1
		c0.1,0,0.1,0.1,0,0.2c-0.1,0.2-0.4,0.4-0.8,0.8c-0.4,0.4-1.1,0.9-2,1.5c-0.5,0.3-1.3,0.9-2.6,1.7c-1.3,0.8-2.6,1.7-4.1,2.6
		c0.8,0.7,1.4,1.5,1.9,2.3c0.4,0.7,0.7,1.5,0.8,2.3c0.2,0.8,0,1.7-0.4,2.5c-1.3,2.1-2.8,3.8-4.5,5c-1.7,1.2-3.2,2-4.6,2.5
		c-0.9,0.3-2,0.4-3.1,0.1c-1.1-0.3-2-0.8-2.7-1.6c-0.7-1.1-0.9-2.1-0.5-3.2c0.4-1.1,1-2.2,1.8-3.2c0.9-1,1.9-2,3-2.9
		c1.1-0.9,2.1-1.8,3-2.5c-0.6-0.7-1.8-1.5-3.5-2.4c-1.7-1-3.5-2-5.3-3.2c-1.8-1.2-3.5-2.4-4.9-3.7c-1.5-1.3-2.3-2.7-2.4-4
		c-0.3-1.5-0.1-2.9,0.5-4.2c0.6-1.4,1.6-2.6,2.8-3.6c1.2-1,2.7-1.8,4.3-2.3C162,580.6,163.7,580.4,165.5,580.7z M164.6,614.9
		c0.7,0.3,1.6,0.3,2.5,0c0.9-0.3,1.8-0.8,2.6-1.4c0.8-0.6,1.6-1.3,2.2-2.1c0.6-0.8,1-1.4,1.2-2c0.2-0.5,0-1.1-0.5-1.7
		c-0.6-0.6-1.1-1.1-1.7-1.5c-0.7,0.5-1.6,1.2-2.5,2c-0.9,0.8-1.7,1.7-2.4,2.5c-0.7,0.9-1.2,1.7-1.5,2.5
		C164.1,613.9,164.2,614.5,164.6,614.9z"/>
	<path d="M185,540.3c0.1,0.2,0.1,1,0.2,2.5c0.1,1.5,0.1,3.4,0.1,5.7c0,2.3,0,5,0,7.9c0,3,0,6,0,9.1c0,3.1,0.1,6.2,0.1,9.3
		c0,3.1,0,5.9,0,8.4c0,2.6,0,4.7,0,6.5c0,1.8,0,2.9,0,3.5c0.7-3.3,1.8-5.9,3.1-8.1c1.4-2.1,2.6-3.3,3.7-3.4c1.3-0.3,2.3,0,3,0.8
		c0.7,0.8,1.3,2,1.7,3.4c0.4,1.4,0.9,3,1.3,4.8c0.4,1.8,1,3.4,1.7,5c0.7,1.6,1.7,3,3,4.2c1.3,1.2,3,2,5.2,2.2
		c-1.7,1.5-3.3,2.1-4.6,2c-1.4-0.1-2.6-0.7-3.6-1.8c-1.1-1.1-2-2.4-2.8-4.1c-0.8-1.7-1.5-3.3-2-4.9c-0.5-1.6-1-3-1.3-4.2
		c-0.3-1.2-0.6-1.9-0.7-2.1c-0.4-0.5-0.8-0.6-1.3-0.1c-0.5,0.5-0.9,1.2-1.4,2.2c-0.5,1-1,2.1-1.4,3.4c-0.4,1.3-0.8,2.5-1.1,3.7
		c-0.3,1.2-0.6,2.1-0.8,2.9c-0.2,0.8-0.3,1.2-0.3,1.1c-0.2,0.9-0.4,2-0.5,3.4c-0.1,1.4-0.2,2.8-0.2,4.1c0,1.4,0,2.6,0,3.7
		c0,1.1,0.1,1.8,0.2,2c-0.5,0-1.1-0.1-2-0.4c-0.9-0.3-1.5-0.4-2-0.4c0-2,0-4.6,0-7.8c0-3.2,0-6.8,0-10.8c0-4,0-8.2,0-12.7
		c0-4.5-0.1-9.1-0.2-13.7c-0.1-4.6-0.2-9.2-0.3-13.8c-0.1-4.6-0.3-8.9-0.6-12.9c0-0.1,0.4-0.4,1.2-0.7
		C183.2,540.2,184,540.1,185,540.3z"/>
	<path d="M250.2,551.2c0.6,1.3,1,2.2,1.1,2.6c0.2,0.4,0.3,1.1,0.4,2c-0.8-0.7-1.5-1.2-2.1-1.7c-0.6-0.5-1.2-0.9-1.8-1.2
		c-0.6-0.4-1.3-0.7-2-0.9c-0.7-0.3-1.6-0.5-2.6-0.7c-2.7-0.3-5.2-0.2-7.5,0.3c-2.4,0.5-4.4,1.4-6,2.5c-1.6,1.2-2.8,2.6-3.4,4.3
		c-0.7,1.7-0.7,3.5,0,5.5c0.7,2.2,1.9,4.3,3.4,6.3c1.5,2,3.3,4,5.2,5.9c2,1.9,4.1,3.7,6.3,5.4c2.2,1.7,4.4,3.3,6.4,4.8
		c2,1.5,3.9,2.8,5.6,4c1.7,1.2,3.1,2.2,4,3.1c2.1-1.1,4-2,5.8-2.7c1.8-0.7,3.7-1.5,5.6-2.2h0.6c0.3,0.1,0.3,0.3,0.1,0.6
		c-0.6,0.5-1.3,1.1-2.1,1.7c-0.8,0.6-1.7,1.2-2.5,1.8c-0.9,0.6-1.7,1.2-2.5,1.8c-0.8,0.6-1.6,1.1-2.2,1.6c1.9,1.9,3.2,3.7,3.8,5.2
		c0.6,1.6,0.6,3.1,0.1,4.6c-0.5,1.5-1.6,3-3.3,4.6c-1.7,1.6-3.8,3.2-6.5,5c-1.7,1.2-3.6,2.2-5.6,3.1c-2,0.9-3.8,1.4-5.5,1.5
		c-1.7,0.2-3.1-0.1-4.1-0.9c-1-0.8-1.4-2.3-1-4.5c1.1-3.6,3-6.9,5.9-10c2.9-3.1,6.1-6.1,9.9-9.3c0-0.2-0.6-0.8-1.9-1.7
		c-1.3-0.9-3-2.1-5-3.6c-2-1.5-4.3-3.2-6.7-5.1c-2.4-1.9-4.8-4-7-6.1c-2.2-2.1-4.2-4.4-5.9-6.7c-1.7-2.3-2.9-4.6-3.5-6.9
		c-0.8-2.9-1-5.4-0.5-7.5c0.4-2.1,1.1-3.9,2.1-5.3c1-1.4,2-2.5,3.2-3.3c1.2-0.8,2.1-1.3,2.8-1.6c1.5-0.5,3.1-0.9,4.6-1.2
		c1.6-0.3,3.1-0.4,4.7-0.3c1.6,0.1,3.2,0.6,4.8,1.3C246.9,548.4,248.5,549.6,250.2,551.2z M242,614.3c-0.1,0.5,0,0.8,0.5,1.1
		c0.5,0.3,1.2,0.4,2.3,0.3c1.1-0.1,2.4-0.4,4-0.9c1.6-0.6,3.6-1.5,5.8-2.8c1.7-1.1,2.9-2.4,3.8-3.7c0.9-1.3,1.4-2.6,1.6-3.9
		c0.2-1.3,0-2.5-0.6-3.6c-0.6-1.1-1.6-2-3-2.6c-0.7,0.3-1.8,1.1-3.3,2.3c-1.6,1.2-3.2,2.6-4.8,4.2c-1.6,1.6-3.1,3.3-4.3,5
		C242.7,611.5,242.1,613,242,614.3z"/>
	<path d="M285.2,582.4c2.9-0.2,5.7-0.4,8.4-0.6c2.8-0.2,5.6-0.5,8.6-0.7c0.7,0.1,1.1,0.4,1.3,1c0.2,0.6-0.1,1-0.8,1.1
		c-2.5,0.3-5.3,0.6-8.5,1.1c-3.2,0.5-6.2,1.1-9.1,1.8c0.1,2.1,0.2,4.2,0.2,6.3s0,4.3,0.1,6.4c0.1,2.1,0.3,4.1,0.6,6.1
		c0.3,2,0.8,3.8,1.4,5.4c0.9,1.1,1.9,1.8,2.8,2c0.9,0.2,1.8,0.1,2.6-0.1c0.8-0.3,1.6-0.8,2.3-1.4c0.7-0.6,1.3-1.2,1.8-1.8
		c0.5-0.5,0.8-0.5,1.1,0c0.3,0.5,0,1.2-0.8,2.1c-0.4,0.5-0.9,1-1.5,1.5s-1.3,1-2.1,1.3c-0.8,0.4-1.8,0.6-2.8,0.7
		c-1,0.1-2.1,0-3.3-0.3c-1.5-0.4-2.7-1.6-3.4-3.7c-0.7-2.1-1.3-4.5-1.6-7.2c-0.4-2.8-0.6-5.6-0.7-8.6c-0.1-3-0.3-5.7-0.5-8.1
		c-2.9,0.3-5.1,0.5-6.4,0.7c-1.4,0.2-2.3,0.3-2.9,0.4c-0.6,0.1-1,0-1.2-0.1c-0.2-0.1-0.6-0.4-1.1-0.9c0.1-0.3,0.1-0.6,0-0.9
		c0-0.3,0-0.5,0-0.7c0-0.2,0.2-0.4,0.4-0.6c0.2-0.2,0.7-0.4,1.3-0.5c1-0.3,2.4-0.4,4.3-0.4c1.9,0,3.7-0.2,5.5-0.4
		c-0.1-2.1-0.1-3.8-0.2-5c-0.1-1.2-0.1-2.2-0.2-3.1c-0.1-0.9-0.1-1.8-0.1-2.6c0-0.9,0-2,0-3.4c0-0.3,0.2-0.6,0.5-0.7
		c0.4-0.2,0.8-0.3,1.2-0.3c0.5,0,0.9,0,1.3,0.2c0.4,0.2,0.7,0.4,0.8,0.7c0.2,0.6,0.3,1.5,0.4,2.6c0.1,1.2,0.1,2.4,0.1,3.7
		c0,1.3,0,2.6,0,3.9C285.3,580.3,285.2,581.5,285.2,582.4z"/>
	<path d="M299.9,580.6c-0.1-0.6,0.2-0.7,0.9-0.4c0.7,0.3,1.4,0.6,2.1,0.9c0.3,1.5,0.5,2.7,0.6,3.6c0.1,0.9,0.2,1.7,0.3,2.5
		c0.1,0.8,0.1,1.7,0.2,2.6c0.1,0.9,0.2,2.2,0.3,3.7c0.6-1.5,1.3-2.9,2.2-4.2c0.9-1.3,2-2.4,3.3-3.3c1.4-0.9,3-1.6,4.9-2
		c1.9-0.4,4.2-0.6,6.8-0.4c0,0.5-0.2,1-0.5,1.3c-0.4,0.4-1.2,0.6-2.5,0.8c-1.9,0.3-3.6,1-5,1.9c-1.4,1-2.7,2.1-3.7,3.3
		c-1,1.3-1.9,2.6-2.5,4c-0.6,1.4-1.1,2.7-1.5,3.9c-0.1,0.6-0.1,1.4-0.2,2.5c-0.1,1.1-0.2,2.3-0.2,3.5c0,1.2-0.1,2.4-0.1,3.6
		c0,1.2,0,2.1,0.1,2.7c0.1,0.3-0.1,0.6-0.4,0.7c-0.4,0.2-0.8,0.3-1.2,0.3c-0.5,0.1-0.9,0-1.3-0.1c-0.4-0.1-0.6-0.4-0.6-0.7
		c0.1-6.8,0-12.7-0.5-17.7C300.8,589,300.3,584.5,299.9,580.6z"/>
	<path d="M327.2,583.9c0.2-0.1,0.8-0.2,1.7-0.5c0.9-0.3,1.7-0.3,2.3-0.2c1.9-0.1,3.4,0.4,4.4,1.5c1,1.1,1.1,3.1,0.2,6.2
		c-1.3,3.4-2.9,6.2-5,8.5c-2.1,2.3-4.6,4.4-7.4,6.5c0.7,1.7,1.7,2.7,3,2.9c1.3,0.2,2.7,0,4.2-0.6c1.5-0.6,2.9-1.5,4.3-2.5
		c1.4-1.1,2.5-2,3.4-2.8c1.4-1.2,2.5-2.2,3.3-3c0.8-0.8,1.7-1.8,2.6-3c0.2-0.1,0.3-0.1,0.3,0c0,0.2,0,0.4,0,0.7
		c-0.1,0.3-0.2,0.8-0.3,1.4c-0.2,0.5-0.4,0.9-0.6,1.2c-0.2,0.4-0.5,0.8-0.8,1.2c-0.4,0.4-0.8,0.9-1.4,1.5c-0.6,0.6-1.3,1.4-2.2,2.4
		c-1,0.9-2,1.8-2.9,2.7c-0.9,0.9-1.9,1.7-2.9,2.3c-1,0.7-2.2,1.1-3.4,1.4c-1.2,0.3-2.6,0.3-4.2,0c-1.3-0.5-2.4-1-3.2-1.5
		c-0.8-0.5-1.4-1.1-1.8-1.6c-0.4-0.6-0.7-1.1-0.9-1.5c-0.2-0.5-0.3-0.9-0.4-1.2c-0.3-1.3-0.5-3.1-0.4-5.4c0.1-2.3,0.7-5.2,2-8.8
		c0.9-1.9,1.8-3.4,2.8-4.7C324.7,585.6,325.8,584.6,327.2,583.9z M322.8,601.5c0.9-0.5,1.9-1.1,3-1.9c1.2-0.8,2.3-1.8,3.3-2.9
		c1-1.1,1.9-2.3,2.7-3.6c0.8-1.3,1.2-2.7,1.2-4.2c0.2-1,0.2-1.7-0.1-2.1c-0.1-0.2-0.3-0.3-0.4-0.3c-1.1-0.5-2.3-0.4-3.4,0.5
		c-1.1,0.9-2.2,2.1-3.1,3.7c-0.9,1.6-1.7,3.4-2.3,5.3C323.1,598,322.8,599.8,322.8,601.5z"/>
	<path d="M352.1,583.9c0.2-0.1,0.8-0.2,1.7-0.5c0.9-0.3,1.7-0.3,2.3-0.2c1.9-0.1,3.4,0.4,4.4,1.5c1,1.1,1.1,3.1,0.2,6.2
		c-1.3,3.4-2.9,6.2-5,8.5c-2.1,2.3-4.6,4.4-7.4,6.5c0.7,1.7,1.7,2.7,3,2.9c1.3,0.2,2.7,0,4.2-0.6c1.5-0.6,2.9-1.5,4.3-2.5
		c1.4-1.1,2.5-2,3.4-2.8c1.4-1.2,2.5-2.2,3.3-3c0.8-0.8,1.7-1.8,2.6-3c0.2-0.1,0.3-0.1,0.3,0c0,0.2,0,0.4,0,0.7
		c-0.1,0.3-0.2,0.8-0.3,1.4c-0.2,0.5-0.4,0.9-0.6,1.2c-0.2,0.4-0.5,0.8-0.8,1.2c-0.4,0.4-0.8,0.9-1.4,1.5c-0.6,0.6-1.3,1.4-2.2,2.4
		c-1,0.9-2,1.8-2.9,2.7c-0.9,0.9-1.9,1.7-2.9,2.3c-1,0.7-2.2,1.1-3.4,1.4c-1.2,0.3-2.6,0.3-4.2,0c-1.3-0.5-2.4-1-3.2-1.5
		c-0.8-0.5-1.4-1.1-1.8-1.6c-0.4-0.6-0.7-1.1-0.9-1.5c-0.2-0.5-0.3-0.9-0.4-1.2c-0.3-1.3-0.5-3.1-0.4-5.4c0.1-2.3,0.7-5.2,2-8.8
		c0.9-1.9,1.8-3.4,2.8-4.7C349.6,585.6,350.8,584.6,352.1,583.9z M347.7,601.5c0.9-0.5,1.9-1.1,3-1.9c1.2-0.8,2.3-1.8,3.3-2.9
		c1-1.1,1.9-2.3,2.7-3.6c0.8-1.3,1.2-2.7,1.2-4.2c0.2-1,0.2-1.7-0.1-2.1c-0.1-0.2-0.3-0.3-0.4-0.3c-1.1-0.5-2.3-0.4-3.4,0.5
		c-1.1,0.9-2.2,2.1-3.1,3.7c-0.9,1.6-1.7,3.4-2.3,5.3C348,598,347.7,599.8,347.7,601.5z"/>
	<path d="M378.7,582.4c2.9-0.2,5.7-0.4,8.4-0.6c2.8-0.2,5.6-0.5,8.6-0.7c0.7,0.1,1.1,0.4,1.3,1c0.2,0.6-0.1,1-0.8,1.1
		c-2.5,0.3-5.3,0.6-8.5,1.1c-3.2,0.5-6.2,1.1-9.1,1.8c0.1,2.1,0.2,4.2,0.2,6.3s0,4.3,0.1,6.4c0.1,2.1,0.3,4.1,0.6,6.1
		c0.3,2,0.8,3.8,1.4,5.4c0.9,1.1,1.9,1.8,2.8,2c0.9,0.2,1.8,0.1,2.6-0.1c0.8-0.3,1.6-0.8,2.3-1.4c0.7-0.6,1.3-1.2,1.8-1.8
		c0.5-0.5,0.8-0.5,1.1,0c0.3,0.5,0,1.2-0.8,2.1c-0.4,0.5-0.9,1-1.5,1.5s-1.3,1-2.1,1.3c-0.8,0.4-1.8,0.6-2.8,0.7
		c-1,0.1-2.1,0-3.3-0.3c-1.5-0.4-2.7-1.6-3.4-3.7c-0.7-2.1-1.3-4.5-1.6-7.2c-0.4-2.8-0.6-5.6-0.7-8.6c-0.1-3-0.3-5.7-0.5-8.1
		c-2.9,0.3-5.1,0.5-6.4,0.7c-1.4,0.2-2.3,0.3-2.9,0.4c-0.6,0.1-1,0-1.2-0.1c-0.2-0.1-0.6-0.4-1.1-0.9c0.1-0.3,0.1-0.6,0-0.9
		c0-0.3,0-0.5,0-0.7c0-0.2,0.2-0.4,0.4-0.6c0.2-0.2,0.7-0.4,1.3-0.5c1-0.3,2.4-0.4,4.3-0.4c1.9,0,3.7-0.2,5.5-0.4
		c-0.1-2.1-0.1-3.8-0.2-5c-0.1-1.2-0.1-2.2-0.2-3.1c-0.1-0.9-0.1-1.8-0.1-2.6c0-0.9,0-2,0-3.4c0-0.3,0.2-0.6,0.5-0.7
		c0.4-0.2,0.8-0.3,1.2-0.3c0.5,0,0.9,0,1.3,0.2c0.4,0.2,0.7,0.4,0.8,0.7c0.2,0.6,0.3,1.5,0.4,2.6c0.1,1.2,0.1,2.4,0.1,3.7
		c0,1.3,0,2.6,0,3.9C378.8,580.3,378.8,581.5,378.7,582.4z"/>
	<path d="M415.3,544.7c0.2-0.1,0.4-0.1,0.7,0.2c0.2,0.2,0.4,0.6,0.6,1.2c0.2,0.6,0.4,1.5,0.6,2.6c2-0.4,3.8-0.8,5.3-1.1
		c1.5-0.3,3-0.7,4.4-1c1.4-0.3,2.8-0.7,4.3-1c1.5-0.4,3.2-0.7,5.1-1.1c1.2-0.1,2.1-0.3,2.8-0.4c0.7-0.2,1.2-0.3,1.5-0.4
		c0.4-0.1,0.6-0.2,0.8-0.2c0.2-0.1,0.3-0.1,0.5,0c0.1,0.6,0.2,1,0.3,1.3c0.1,0.3,0.1,0.5,0,0.6c0,0.1-0.1,0.3-0.2,0.4
		c-0.1,0.1-0.2,0.3-0.4,0.6c-0.9,0.3-2.1,0.8-3.7,1.3c-1.6,0.5-3.4,1.1-5.3,1.6c-1.9,0.6-3.9,1.1-5.8,1.7c-2,0.6-3.7,1-5.3,1.3
		c-0.3,0.1-0.6,0.2-1,0.3c-0.4,0.1-0.8,0.3-1.2,0.4c-0.5,0.2-1,0.4-1.5,0.5c0.1,1.2,0.1,2,0.1,2.4c0,0.4,0,0.9,0,1.4
		c0,0.5-0.1,1.3-0.1,2.4c0,1.1,0,2.9,0.1,5.5c-0.1,0.3-0.1,0.8,0,1.7c0,0.9,0.1,1.8,0.1,2.8c0.1,1.2,0.2,2.5,0.3,3.9
		c1.2-0.2,2.3-0.5,3.4-1c1.1-0.5,2.3-1,3.7-1.6c1.4-0.6,3-1.2,4.9-1.9c1.9-0.7,4.2-1.4,7-2c0.4,0.4,0.3,0.8-0.2,1.3
		c-0.5,0.5-1.3,1-2.3,1.5c-1,0.5-2.2,1.1-3.5,1.7c-1.3,0.6-2.5,1.2-3.6,1.9c-1.5,0.6-2.7,1.1-3.6,1.6c-1,0.5-1.8,0.9-2.4,1.3
		c-0.6,0.4-1.2,0.6-1.6,0.8c-0.5,0.2-0.9,0.2-1.4,0.2c0,0.7,0,1.9,0.1,3.6c0.1,1.7,0.1,3.7,0.2,6c0.1,2.3,0.2,4.7,0.3,7.2
		c0.1,2.6,0.2,5,0.3,7.3c0.1,2.3,0.3,4.4,0.4,6.2c0.1,1.9,0.3,3.2,0.4,4.1c-0.7,0.1-1.4,0.2-2.1,0.3c-0.8,0.1-1.5,0.1-2.3,0.1v-6
		c0-4.6-0.1-9.1-0.2-13.5c-0.2-4.4-0.4-9.1-0.7-13.9c-0.9,0.3-1.5,0.6-1.9,0.7c-0.4,0.2-0.8,0.3-1,0.3c-0.3,0.1-0.5,0.1-0.8,0
		c-0.3,0-0.7-0.1-1.3-0.2c0.1-0.5,0-0.8-0.3-0.8c-0.4,0-0.5-0.2-0.5-0.6c0.2-0.6,0.5-1,1-1.3c0.5-0.3,1-0.5,1.5-0.7
		c0.6-0.2,1.1-0.3,1.7-0.5c0.6-0.2,1-0.5,1.4-1c-0.1-2.5-0.1-4.7-0.2-6.5c-0.1-1.8-0.1-3.4-0.1-4.8c0-1.4-0.1-2.8-0.2-4.2
		c-0.1-1.4-0.2-2.8-0.2-4.4c-0.7,0.3-1.3,0.4-1.8,0.3c-0.5,0-1-0.2-1.3-0.6c-0.5-0.5-0.7-1.1-0.7-1.8c0-0.7,0-1.1,0.1-1.3
		c-0.1-0.1,0.1-0.2,0.4-0.4c0.4-0.2,0.7-0.4,1.1-0.6c0.5-0.3,1-0.5,1.7-0.8c-0.1-0.9,0-1.7,0.1-2.4c0.1-0.6,0.3-1.2,0.6-1.7
		C414.3,545,414.7,544.7,415.3,544.7z"/>
	<path d="M433.4,582.2c1.3,0.1,2.7,0.3,4.2,0.5c1.5,0.3,3,0.7,4.5,1.2c1.5,0.5,2.8,1.1,4,1.7c1.2,0.6,2.2,1.3,3,2.1
		c0.8,0.7,1.3,1.8,1.4,3.3c0.1,1.5,0,3.1-0.3,4.9c-0.3,1.8-0.8,3.6-1.5,5.5c-0.7,1.9-1.5,3.6-2.3,5.1c-0.9,1.5-1.8,2.8-2.8,3.8
		s-1.9,1.5-2.8,1.5c-1.5,0-2.7-0.3-3.7-1s-1.8-1.5-2.4-2.5s-1-2-1.3-3.1c-0.3-1.1-0.5-2-0.5-2.8c-0.2-3.5-0.2-6.6-0.1-9.4
		c0.1-2.7,0.4-5,0.7-6.8c-0.2-0.3-0.4-0.6-0.6-0.9c-0.2-0.3-0.4-0.5-0.6-0.7c-0.2-0.2-0.4-0.4-0.7-0.6c0.3-0.1,0.5-0.3,0.8-0.6
		C432.8,583,433.2,582.6,433.4,582.2z M436.9,605.9c0.2,0.3,0.5,0.5,0.8,0.8c0.3,0.3,0.7,0.5,1.2,0.7c0.5,0.2,1,0.2,1.5,0
		c0.5-0.1,1.1-0.5,1.7-1.1c1.6-1.7,2.8-3.4,3.6-5.1c0.8-1.8,1.3-3.4,1.5-5c0.2-1.6,0.2-2.9-0.1-4.1c-0.3-1.2-0.8-2.1-1.4-2.6
		c-0.5-0.3-1-0.6-1.3-0.8c-0.4-0.2-0.8-0.4-1.4-0.6c-0.6-0.2-1.3-0.4-2.1-0.6c-0.9-0.2-2-0.5-3.4-0.9c-0.7,2.1-1.1,4.3-1.4,6.4
		c-0.3,2.1-0.4,4.1-0.3,5.8c0,1.8,0.2,3.3,0.4,4.6C436.4,604.6,436.7,605.5,436.9,605.9z"/>
	<path d="M455.2,582.2c1.3,0.1,2.7,0.3,4.2,0.5c1.5,0.3,3,0.7,4.5,1.2c1.5,0.5,2.8,1.1,4,1.7c1.2,0.6,2.2,1.3,3,2.1
		c0.8,0.7,1.3,1.8,1.4,3.3c0.1,1.5,0,3.1-0.3,4.9c-0.3,1.8-0.8,3.6-1.5,5.5c-0.7,1.9-1.5,3.6-2.3,5.1c-0.9,1.5-1.8,2.8-2.8,3.8
		s-1.9,1.5-2.8,1.5c-1.5,0-2.7-0.3-3.7-1s-1.8-1.5-2.4-2.5s-1-2-1.3-3.1c-0.3-1.1-0.5-2-0.5-2.8c-0.2-3.5-0.2-6.6-0.1-9.4
		c0.1-2.7,0.4-5,0.7-6.8c-0.2-0.3-0.4-0.6-0.6-0.9c-0.2-0.3-0.4-0.5-0.6-0.7c-0.2-0.2-0.4-0.4-0.7-0.6c0.3-0.1,0.5-0.3,0.8-0.6
		C454.6,583,455,582.6,455.2,582.2z M458.8,605.9c0.2,0.3,0.5,0.5,0.8,0.8c0.3,0.3,0.7,0.5,1.2,0.7c0.5,0.2,1,0.2,1.5,0
		c0.5-0.1,1.1-0.5,1.7-1.1c1.6-1.7,2.8-3.4,3.6-5.1c0.8-1.8,1.3-3.4,1.5-5c0.2-1.6,0.2-2.9-0.1-4.1c-0.3-1.2-0.8-2.1-1.4-2.6
		c-0.5-0.3-1-0.6-1.3-0.8c-0.4-0.2-0.8-0.4-1.4-0.6c-0.6-0.2-1.3-0.4-2.1-0.6c-0.9-0.2-2-0.5-3.4-0.9c-0.7,2.1-1.1,4.3-1.4,6.4
		c-0.3,2.1-0.4,4.1-0.3,5.8c0,1.8,0.2,3.3,0.4,4.6C458.3,604.6,458.5,605.5,458.8,605.9z"/>
	<path d="M509.6,559.7c-0.2,1.2-0.4,2.5-0.7,3.8c-0.3,1.3-0.5,2.6-0.8,3.8c-0.3,1.2-0.5,2.2-0.7,3.1c-0.2,0.9-0.3,1.4-0.4,1.6
		c-0.4,1.1-0.9,2.6-1.6,4.4c-0.7,1.8-1.4,3.7-2.3,5.6c-0.9,2-1.9,3.9-3,5.9c-1.1,2-2.3,3.6-3.5,5c0,1,0.1,2.7,0.3,5
		c0.2,2.4,0.5,4.9,0.8,7.6c0.3,2.7,0.6,5.4,0.9,8c0.3,2.6,0.5,4.7,0.5,6.1c-0.3,0.3-0.6,0.3-0.9-0.2c-0.3-0.5-0.7-1.3-1.2-2.4
		c-0.4-1.7-0.7-3.3-0.9-4.8c-0.2-1.5-0.4-2.9-0.6-4.4c-0.2-1.5-0.4-3.1-0.6-4.7c-0.2-1.7-0.6-3.6-1-5.7c-1.3,1.6-2.8,3.4-4.5,5.4
		c-1.8,2-3.6,3.8-5.5,5.4c-1.9,1.6-3.8,2.7-5.6,3.3c-1.8,0.6-3.4,0.3-4.7-0.8c-0.8-1.1-1.1-2.3-1-3.7c0.1-1.4,0.5-2.9,1.2-4.4
		c0.7-1.5,1.6-3,2.7-4.4c1.1-1.5,2.2-2.8,3.3-4.1c1.1-1.3,2.2-2.4,3.2-3.3c1-0.9,1.7-1.6,2.2-2c0.9-0.6,1.7-1.1,2.3-1.4
		c0.6-0.4,1.2-0.7,1.7-0.9c0.5-0.2,1-0.4,1.5-0.5c0.5-0.1,1.2-0.1,2,0c-0.1-1.5-0.2-3.4-0.2-5.5c0-2.1,0-4.3,0-6.4
		c0-2.2,0.1-4.2,0.2-6c0.1-1.9,0.2-3.3,0.4-4.3c0.1-1.5,0.4-3,0.9-4.6c0.5-1.6,1.1-3.1,1.9-4.6c0.8-1.5,1.6-2.8,2.5-4
		c0.9-1.2,1.9-2,3-2.5c1.1-0.5,2.2-0.6,3.4-0.3c1.2,0.3,2.3,1.1,3.4,2.5c0.9,1.1,1.4,2.5,1.4,4.2S509.6,557.8,509.6,559.7z
		 M482,595.6c-1.8,1.9-3.1,3.6-3.9,5.1c-0.8,1.6-1.5,3-2,4.3c0,0.2,0,0.5,0,0.9c0,0.4,0.1,0.8,0.1,1.2c0.1,0.4,0.3,0.7,0.6,1
		c0.3,0.3,0.8,0.4,1.4,0.2c0.7-0.3,1.2-0.5,1.6-0.8c0.4-0.3,0.8-0.5,1.2-0.8c0.4-0.3,0.8-0.6,1.2-0.9c0.4-0.3,1-0.8,1.6-1.3
		c0.9-1,2.1-2.1,3.4-3.4c1.4-1.3,2.6-2.6,3.6-4c1-1.4,1.7-2.8,2-4.3c0.3-1.5-0.1-2.9-1.3-4.3c-0.5,0-0.9,0.1-1.4,0.2
		c-0.5,0.1-1.1,0.4-1.8,0.9c-0.7,0.5-1.6,1.2-2.6,2.1C484.7,592.8,483.5,594,482,595.6z M496.5,586.3c1.2-1.3,2.2-2.7,3-4.2
		c0.8-1.5,1.7-3.3,2.7-5.3c0.9-1.8,1.6-4.1,2.3-6.9s1.2-5.5,1.4-8.2s0.3-5,0-7s-0.9-3.1-2-3.2c-0.9-0.1-1.8,0.2-2.6,1
		c-0.8,0.8-1.5,1.9-2.2,3.1c-0.7,1.2-1.2,2.5-1.7,3.9c-0.5,1.4-0.8,2.6-1,3.7c-0.3,1.3-0.4,2.5-0.5,3.6s-0.2,2.2-0.2,3.3
		c0,1.2-0.1,2.4-0.1,3.8c-0.1,1.4-0.2,3-0.4,5c0,1,0,2,0.1,3c0.1,1,0.2,1.8,0.4,2.5c0.2,0.7,0.3,1.2,0.4,1.6
		C496.3,586.4,496.4,586.5,496.5,586.3z"/>
</g>
</svg>
